<mxfile host="drawio-plugin" modified="2025-03-26T12:44:18.913Z" agent="5.0 (Windows NT 6.2; Win64; x64) AppleWebKit/537.36 (KHTML, like Gecko) Chrome/104.0.5112.102 Safari/537.36" etag="jU4XiiYRrFBxZEYfFWgm" version="20.5.3" type="embed"><diagram id="23iRSUPoRavnBvh4doch" name="Page-1"><mxGraphModel dx="-1800" dy="-1732" grid="1" gridSize="10" guides="1" tooltips="1" connect="1" arrows="1" fold="1" page="1" pageScale="1" pageWidth="827" pageHeight="1169" math="0" shadow="0"><root><mxCell id="0"/><mxCell id="1" parent="0"/><mxCell id="2" style="edgeStyle=orthogonalEdgeStyle;rounded=0;orthogonalLoop=1;jettySize=auto;html=1;entryX=0;entryY=0.5;entryDx=0;entryDy=0;endArrow=none;startFill=0;" parent="1" edge="1"><mxGeometry relative="1" as="geometry"><mxPoint x="3610" y="2840" as="sourcePoint"/><mxPoint x="3860" y="2840" as="targetPoint"/></mxGeometry></mxCell><mxCell id="3" value="User" style="shape=umlActor;verticalLabelPosition=bottom;verticalAlign=top;html=1;outlineConnect=0;" parent="1" vertex="1"><mxGeometry x="3570" y="2800" width="35" height="70" as="geometry"/></mxCell><mxCell id="4" value=":Frontend" style="rounded=0;whiteSpace=wrap;html=1;" parent="1" vertex="1"><mxGeometry x="3849.09" y="2815" width="130.91" height="40" as="geometry"/></mxCell><mxCell id="5" value="" style="endArrow=classic;html=1;rounded=0;" parent="1" edge="1"><mxGeometry width="50" height="50" relative="1" as="geometry"><mxPoint x="3620" y="2825" as="sourcePoint"/><mxPoint x="3840" y="2825" as="targetPoint"/></mxGeometry></mxCell><mxCell id="6" value="" style="endArrow=classic;html=1;rounded=0;dashed=1;" parent="1" edge="1"><mxGeometry width="50" height="50" relative="1" as="geometry"><mxPoint x="3830" y="2855" as="sourcePoint"/><mxPoint x="3620" y="2855" as="targetPoint"/></mxGeometry></mxCell><mxCell id="7" value="&amp;nbsp;:Router" style="rounded=0;whiteSpace=wrap;html=1;" parent="1" vertex="1"><mxGeometry x="4310" y="2815" width="130.91" height="40" as="geometry"/></mxCell><mxCell id="8" style="edgeStyle=orthogonalEdgeStyle;rounded=0;orthogonalLoop=1;jettySize=auto;html=1;entryX=0;entryY=0.5;entryDx=0;entryDy=0;endArrow=none;startFill=0;" parent="1" target="7" edge="1"><mxGeometry relative="1" as="geometry"><mxPoint x="3990" y="2835" as="sourcePoint"/><mxPoint x="4305.91" y="2835" as="targetPoint"/></mxGeometry></mxCell><mxCell id="9" value="" style="endArrow=classic;html=1;rounded=0;" parent="1" edge="1"><mxGeometry width="50" height="50" relative="1" as="geometry"><mxPoint x="4000" y="2820" as="sourcePoint"/><mxPoint x="4300" y="2820" as="targetPoint"/></mxGeometry></mxCell><mxCell id="10" value=":ClassController&amp;nbsp;" style="rounded=0;whiteSpace=wrap;html=1;" parent="1" vertex="1"><mxGeometry x="4800.91" y="2815" width="130.91" height="40" as="geometry"/></mxCell><mxCell id="11" style="edgeStyle=orthogonalEdgeStyle;rounded=0;orthogonalLoop=1;jettySize=auto;html=1;entryX=0;entryY=0.5;entryDx=0;entryDy=0;endArrow=none;startFill=0;" parent="1" target="10" edge="1"><mxGeometry relative="1" as="geometry"><mxPoint x="4440.91" y="2835" as="sourcePoint"/><mxPoint x="4645.91" y="2835" as="targetPoint"/></mxGeometry></mxCell><mxCell id="12" value="" style="endArrow=classic;html=1;rounded=0;dashed=1;" parent="1" edge="1"><mxGeometry width="50" height="50" relative="1" as="geometry"><mxPoint x="4780" y="2850" as="sourcePoint"/><mxPoint x="4460" y="2850" as="targetPoint"/></mxGeometry></mxCell><mxCell id="13" value=":ClassService&amp;nbsp;" style="rounded=0;whiteSpace=wrap;html=1;" parent="1" vertex="1"><mxGeometry x="5260.91" y="2815" width="130.91" height="40" as="geometry"/></mxCell><mxCell id="14" style="edgeStyle=orthogonalEdgeStyle;rounded=0;orthogonalLoop=1;jettySize=auto;html=1;entryX=0;entryY=0.5;entryDx=0;entryDy=0;endArrow=none;startFill=0;" parent="1" target="13" edge="1"><mxGeometry relative="1" as="geometry"><mxPoint x="4931.82" y="2835" as="sourcePoint"/><mxPoint x="5136.82" y="2835" as="targetPoint"/></mxGeometry></mxCell><mxCell id="15" value="" style="endArrow=classic;html=1;rounded=0;" parent="1" edge="1"><mxGeometry width="50" height="50" relative="1" as="geometry"><mxPoint x="4956.82" y="2820" as="sourcePoint"/><mxPoint x="5250.91" y="2820" as="targetPoint"/></mxGeometry></mxCell><mxCell id="16" value="" style="endArrow=classic;html=1;rounded=0;dashed=1;" parent="1" edge="1"><mxGeometry width="50" height="50" relative="1" as="geometry"><mxPoint x="5250.91" y="2850" as="sourcePoint"/><mxPoint x="4950.91" y="2850" as="targetPoint"/></mxGeometry></mxCell><mxCell id="17" style="edgeStyle=orthogonalEdgeStyle;rounded=0;orthogonalLoop=1;jettySize=auto;html=1;endArrow=none;startFill=0;" parent="1" source="18" edge="1"><mxGeometry relative="1" as="geometry"><mxPoint x="6140.91" y="2835" as="targetPoint"/></mxGeometry></mxCell><mxCell id="18" value=":ClassRepository" style="rounded=0;whiteSpace=wrap;html=1;" parent="1" vertex="1"><mxGeometry x="5600.91" y="2815" width="130.91" height="40" as="geometry"/></mxCell><mxCell id="19" style="edgeStyle=orthogonalEdgeStyle;rounded=0;orthogonalLoop=1;jettySize=auto;html=1;entryX=0;entryY=0.5;entryDx=0;entryDy=0;endArrow=none;startFill=0;" parent="1" target="18" edge="1"><mxGeometry relative="1" as="geometry"><mxPoint x="5391.82" y="2835" as="sourcePoint"/><mxPoint x="5596.82" y="2835" as="targetPoint"/></mxGeometry></mxCell><mxCell id="20" value="" style="endArrow=classic;html=1;rounded=0;" parent="1" edge="1"><mxGeometry width="50" height="50" relative="1" as="geometry"><mxPoint x="5416.82" y="2820" as="sourcePoint"/><mxPoint x="5576.82" y="2820" as="targetPoint"/></mxGeometry></mxCell><mxCell id="21" value="" style="endArrow=classic;html=1;rounded=0;dashed=1;" parent="1" edge="1"><mxGeometry width="50" height="50" relative="1" as="geometry"><mxPoint x="5580.91" y="2850" as="sourcePoint"/><mxPoint x="5420.91" y="2850" as="targetPoint"/></mxGeometry></mxCell><mxCell id="22" value="1. GET /api/classes?admin=true&lt;div&gt;20. POST /api/classes/invite-code? classID={classID }&lt;/div&gt;" style="text;html=1;align=center;verticalAlign=middle;resizable=0;points=[];autosize=1;strokeColor=none;fillColor=none;" parent="1" vertex="1"><mxGeometry x="3990" y="2775" width="310" height="40" as="geometry"/></mxCell><mxCell id="23" value="&amp;nbsp;:Database" style="rounded=0;whiteSpace=wrap;html=1;" parent="1" vertex="1"><mxGeometry x="6130" y="2820" width="130.91" height="40" as="geometry"/></mxCell><mxCell id="24" value="View Invite Code" style="text;html=1;align=center;verticalAlign=middle;whiteSpace=wrap;rounded=0;fontSize=20;" parent="1" vertex="1"><mxGeometry x="4678.41" y="2660" width="345" height="30" as="geometry"/></mxCell><mxCell id="25" value="17. selectClass(classID)&lt;br&gt;19. ClickViewInviteCode(classID)" style="text;html=1;align=center;verticalAlign=middle;resizable=0;points=[];autosize=1;strokeColor=none;fillColor=none;" parent="1" vertex="1"><mxGeometry x="3625.09" y="2775" width="200" height="40" as="geometry"/></mxCell><mxCell id="26" value="" style="endArrow=classic;html=1;rounded=0;dashed=1;entryX=0.269;entryY=-0.044;entryDx=0;entryDy=0;entryPerimeter=0;" parent="1" edge="1"><mxGeometry width="50" height="50" relative="1" as="geometry"><mxPoint x="4300" y="2851" as="sourcePoint"/><mxPoint x="3999.5300000000007" y="2851.04" as="targetPoint"/></mxGeometry></mxCell><mxCell id="27" value="" style="endArrow=classic;html=1;rounded=0;" parent="1" edge="1"><mxGeometry width="50" height="50" relative="1" as="geometry"><mxPoint x="5750.91" y="2819.38" as="sourcePoint"/><mxPoint x="6120.91" y="2820" as="targetPoint"/></mxGeometry></mxCell><mxCell id="28" value="" style="endArrow=classic;html=1;rounded=0;dashed=1;" parent="1" edge="1"><mxGeometry width="50" height="50" relative="1" as="geometry"><mxPoint x="6110.91" y="2850" as="sourcePoint"/><mxPoint x="5750.91" y="2850" as="targetPoint"/></mxGeometry></mxCell><mxCell id="29" value="&amp;nbsp;" style="text;html=1;align=center;verticalAlign=middle;resizable=0;points=[];autosize=1;strokeColor=none;fillColor=none;" parent="1" vertex="1"><mxGeometry x="4540" y="2865" width="30" height="30" as="geometry"/></mxCell><mxCell id="30" value="&lt;div&gt;11.&amp;nbsp;&lt;span style=&quot;background-color: transparent; color: light-dark(rgb(0, 0, 0), rgb(255, 255, 255));&quot;&gt;errorResponse(404, &quot;ไม่พบข้อมูล class&quot;)&lt;/span&gt;&lt;/div&gt;15. successResponse(200, classList)&lt;div&gt;30&lt;span style=&quot;background-color: transparent; color: light-dark(rgb(0, 0, 0), rgb(255, 255, 255));&quot;&gt;. successResponse(200, inviteCode)&lt;/span&gt;&lt;/div&gt;&lt;div&gt;&lt;span style=&quot;background-color: transparent; color: light-dark(rgb(0, 0, 0), rgb(255, 255, 255));&quot;&gt;46&lt;/span&gt;&lt;span style=&quot;background-color: transparent; color: light-dark(rgb(0, 0, 0), rgb(255, 255, 255));&quot;&gt;. successResponse(200, inviteCodeRecord)&lt;/span&gt;&lt;/div&gt;&lt;div&gt;&lt;div&gt;51. errorResponse(500, &quot;ไม่สามารถสร้าง invite code ได้&quot;)&amp;nbsp;&lt;/div&gt;&lt;/div&gt;" style="text;html=1;align=center;verticalAlign=middle;resizable=0;points=[];autosize=1;strokeColor=none;fillColor=none;" parent="1" vertex="1"><mxGeometry x="3985" y="2855" width="320" height="90" as="geometry"/></mxCell><mxCell id="31" value="16. displayClassList(classList)&lt;div&gt;31. displayInviteCode(inviteCode)&lt;/div&gt;&lt;div&gt;47. displayInviteCode(inviteCodeRecord)&lt;/div&gt;" style="text;html=1;align=center;verticalAlign=middle;resizable=0;points=[];autosize=1;strokeColor=none;fillColor=none;" parent="1" vertex="1"><mxGeometry x="3615" y="2870" width="240" height="60" as="geometry"/></mxCell><mxCell id="32" style="edgeStyle=orthogonalEdgeStyle;rounded=0;orthogonalLoop=1;jettySize=auto;html=1;entryX=0.5;entryY=1;entryDx=0;entryDy=0;endArrow=none;startFill=0;" parent="1" source="33" edge="1"><mxGeometry relative="1" as="geometry"><mxPoint x="4374.09" y="2855" as="targetPoint"/></mxGeometry></mxCell><mxCell id="33" value="&amp;nbsp;:Middleware" style="rounded=0;whiteSpace=wrap;html=1;" parent="1" vertex="1"><mxGeometry x="4309.09" y="3090" width="130.91" height="40" as="geometry"/></mxCell><mxCell id="34" value="" style="endArrow=classic;html=1;rounded=0;" parent="1" edge="1"><mxGeometry width="50" height="50" relative="1" as="geometry"><mxPoint x="4359" y="2880" as="sourcePoint"/><mxPoint x="4359.09" y="3080" as="targetPoint"/></mxGeometry></mxCell><mxCell id="35" value="" style="endArrow=classic;html=1;rounded=0;dashed=1;" parent="1" edge="1"><mxGeometry width="50" height="50" relative="1" as="geometry"><mxPoint x="4389.09" y="3080" as="sourcePoint"/><mxPoint x="4389.09" y="2880" as="targetPoint"/></mxGeometry></mxCell><mxCell id="36" value="2.&amp;nbsp;&lt;span style=&quot;color: rgba(0, 0, 0, 0); font-family: monospace; font-size: 0px; text-align: start;&quot;&gt;%3CmxGraphModel%3E%3Croot%3E%3CmxCell%20id%3D%220%22%2F%3E%3CmxCell%20id%3D%221%22%20parent%3D%220%22%2F%3E%3CmxCell%20id%3D%222%22%20style%3D%22edgeStyle%3DorthogonalEdgeStyle%3Brounded%3D0%3BorthogonalLoop%3D1%3BjettySize%3Dauto%3Bhtml%3D1%3BentryX%3D0%3BentryY%3D0.5%3BentryDx%3D0%3BentryDy%3D0%3BendArrow%3Dnone%3BstartFill%3D0%3B%22%20edge%3D%221%22%20parent%3D%221%22%3E%3CmxGeometry%20relative%3D%221%22%20as%3D%22geometry%22%3E%3CmxPoint%20x%3D%22-2250%22%20y%3D%222240%22%20as%3D%22sourcePoint%22%2F%3E%3CmxPoint%20x%3D%22-2000%22%20y%3D%222240%22%20as%3D%22targetPoint%22%2F%3E%3C%2FmxGeometry%3E%3C%2FmxCell%3E%3CmxCell%20id%3D%223%22%20value%3D%22User%22%20style%3D%22shape%3DumlActor%3BverticalLabelPosition%3Dbottom%3BverticalAlign%3Dtop%3Bhtml%3D1%3BoutlineConnect%3D0%3B%22%20vertex%3D%221%22%20parent%3D%221%22%3E%3CmxGeometry%20x%3D%22-2290%22%20y%3D%222200%22%20width%3D%2235%22%20height%3D%2270%22%20as%3D%22geometry%22%2F%3E%3C%2FmxCell%3E%3CmxCell%20id%3D%224%22%20value%3D%22%3AFrontend%22%20style%3D%22rounded%3D0%3BwhiteSpace%3Dwrap%3Bhtml%3D1%3B%22%20vertex%3D%221%22%20parent%3D%221%22%3E%3CmxGeometry%20x%3D%22-2000%22%20y%3D%222215%22%20width%3D%22130.91%22%20height%3D%2240%22%20as%3D%22geometry%22%2F%3E%3C%2FmxCell%3E%3CmxCell%20id%3D%225%22%20value%3D%22%22%20style%3D%22endArrow%3Dclassic%3Bhtml%3D1%3Brounded%3D0%3B%22%20edge%3D%221%22%20parent%3D%221%22%3E%3CmxGeometry%20width%3D%2250%22%20height%3D%2250%22%20relative%3D%221%22%20as%3D%22geometry%22%3E%3CmxPoint%20x%3D%22-2240%22%20y%3D%222225%22%20as%3D%22sourcePoint%22%2F%3E%3CmxPoint%20x%3D%22-2019.9999999999998%22%20y%3D%222225%22%20as%3D%22targetPoint%22%2F%3E%3C%2FmxGeometry%3E%3C%2FmxCell%3E%3CmxCell%20id%3D%226%22%20value%3D%22%22%20style%3D%22endArrow%3Dclassic%3Bhtml%3D1%3Brounded%3D0%3Bdashed%3D1%3B%22%20edge%3D%221%22%20parent%3D%221%22%3E%3CmxGeometry%20width%3D%2250%22%20height%3D%2250%22%20relative%3D%221%22%20as%3D%22geometry%22%3E%3CmxPoint%20x%3D%22-2029.9999999999998%22%20y%3D%222255%22%20as%3D%22sourcePoint%22%2F%3E%3CmxPoint%20x%3D%22-2240%22%20y%3D%222255%22%20as%3D%22targetPoint%22%2F%3E%3C%2FmxGeometry%3E%3C%2FmxCell%3E%3CmxCell%20id%3D%227%22%20value%3D%22%26amp%3Bnbsp%3B%3ARouter%22%20style%3D%22rounded%3D0%3BwhiteSpace%3Dwrap%3Bhtml%3D1%3B%22%20vertex%3D%221%22%20parent%3D%221%22%3E%3CmxGeometry%20x%3D%22-1660%22%20y%3D%222215%22%20width%3D%22130.91%22%20height%3D%2240%22%20as%3D%22geometry%22%2F%3E%3C%2FmxCell%3E%3CmxCell%20id%3D%228%22%20style%3D%22edgeStyle%3DorthogonalEdgeStyle%3Brounded%3D0%3BorthogonalLoop%3D1%3BjettySize%3Dauto%3Bhtml%3D1%3BentryX%3D0%3BentryY%3D0.5%3BentryDx%3D0%3BentryDy%3D0%3BendArrow%3Dnone%3BstartFill%3D0%3B%22%20edge%3D%221%22%20target%3D%227%22%20parent%3D%221%22%3E%3CmxGeometry%20relative%3D%221%22%20as%3D%22geometry%22%3E%3CmxPoint%20x%3D%22-1869.09%22%20y%3D%222235%22%20as%3D%22sourcePoint%22%2F%3E%3CmxPoint%20x%3D%22-1664.09%22%20y%3D%222235%22%20as%3D%22targetPoint%22%2F%3E%3C%2FmxGeometry%3E%3C%2FmxCell%3E%3CmxCell%20id%3D%229%22%20value%3D%22%22%20style%3D%22endArrow%3Dclassic%3Bhtml%3D1%3Brounded%3D0%3B%22%20edge%3D%221%22%20parent%3D%221%22%3E%3CmxGeometry%20width%3D%2250%22%20height%3D%2250%22%20relative%3D%221%22%20as%3D%22geometry%22%3E%3CmxPoint%20x%3D%22-1844.09%22%20y%3D%222220%22%20as%3D%22sourcePoint%22%2F%3E%3CmxPoint%20x%3D%22-1684.09%22%20y%3D%222220%22%20as%3D%22targetPoint%22%2F%3E%3C%2FmxGeometry%3E%3C%2FmxCell%3E%3CmxCell%20id%3D%2210%22%20value%3D%22%26amp%3Bnbsp%3B%22%20style%3D%22text%3BwhiteSpace%3Dwrap%3Bhtml%3D1%3B%22%20vertex%3D%221%22%20parent%3D%221%22%3E%3CmxGeometry%20x%3D%22-1760%22%20y%3D%222200%22%20width%3D%2240%22%20height%3D%2240%22%20as%3D%22geometry%22%2F%3E%3C%2FmxCell%3E%3CmxCell%20id%3D%2211%22%20value%3D%22%3AClassController%26amp%3Bnbsp%3B%22%20style%3D%22rounded%3D0%3BwhiteSpace%3Dwrap%3Bhtml%3D1%3B%22%20vertex%3D%221%22%20parent%3D%221%22%3E%3CmxGeometry%20x%3D%22-1169.09%22%20y%3D%222215%22%20width%3D%22130.91%22%20height%3D%2240%22%20as%3D%22geometry%22%2F%3E%3C%2FmxCell%3E%3CmxCell%20id%3D%2212%22%20style%3D%22edgeStyle%3DorthogonalEdgeStyle%3Brounded%3D0%3BorthogonalLoop%3D1%3BjettySize%3Dauto%3Bhtml%3D1%3BentryX%3D0%3BentryY%3D0.5%3BentryDx%3D0%3BentryDy%3D0%3BendArrow%3Dnone%3BstartFill%3D0%3B%22%20edge%3D%221%22%20target%3D%2211%22%20parent%3D%221%22%3E%3CmxGeometry%20relative%3D%221%22%20as%3D%22geometry%22%3E%3CmxPoint%20x%3D%22-1529.09%22%20y%3D%222235%22%20as%3D%22sourcePoint%22%2F%3E%3CmxPoint%20x%3D%22-1324.09%22%20y%3D%222235%22%20as%3D%22targetPoint%22%2F%3E%3C%2FmxGeometry%3E%3C%2FmxCell%3E%3CmxCell%20id%3D%2213%22%20value%3D%22%22%20style%3D%22endArrow%3Dclassic%3Bhtml%3D1%3Brounded%3D0%3B%22%20edge%3D%221%22%20parent%3D%221%22%3E%3CmxGeometry%20width%3D%2250%22%20height%3D%2250%22%20relative%3D%221%22%20as%3D%22geometry%22%3E%3CmxPoint%20x%3D%22-1504.09%22%20y%3D%222220%22%20as%3D%22sourcePoint%22%2F%3E%3CmxPoint%20x%3D%22-1190%22%20y%3D%222220%22%20as%3D%22targetPoint%22%2F%3E%3C%2FmxGeometry%3E%3C%2FmxCell%3E%3CmxCell%20id%3D%2214%22%20value%3D%22%22%20style%3D%22endArrow%3Dclassic%3Bhtml%3D1%3Brounded%3D0%3Bdashed%3D1%3B%22%20edge%3D%221%22%20parent%3D%221%22%3E%3CmxGeometry%20width%3D%2250%22%20height%3D%2250%22%20relative%3D%221%22%20as%3D%22geometry%22%3E%3CmxPoint%20x%3D%22-1190%22%20y%3D%222250%22%20as%3D%22sourcePoint%22%2F%3E%3CmxPoint%20x%3D%22-1510%22%20y%3D%222250%22%20as%3D%22targetPoint%22%2F%3E%3C%2FmxGeometry%3E%3C%2FmxCell%3E%3CmxCell%20id%3D%2215%22%20value%3D%22%3AClassService%26amp%3Bnbsp%3B%22%20style%3D%22rounded%3D0%3BwhiteSpace%3Dwrap%3Bhtml%3D1%3B%22%20vertex%3D%221%22%20parent%3D%221%22%3E%3CmxGeometry%20x%3D%22-709.09%22%20y%3D%222215%22%20width%3D%22130.91%22%20height%3D%2240%22%20as%3D%22geometry%22%2F%3E%3C%2FmxCell%3E%3CmxCell%20id%3D%2216%22%20style%3D%22edgeStyle%3DorthogonalEdgeStyle%3Brounded%3D0%3BorthogonalLoop%3D1%3BjettySize%3Dauto%3Bhtml%3D1%3BentryX%3D0%3BentryY%3D0.5%3BentryDx%3D0%3BentryDy%3D0%3BendArrow%3Dnone%3BstartFill%3D0%3B%22%20edge%3D%221%22%20target%3D%2215%22%20parent%3D%221%22%3E%3CmxGeometry%20relative%3D%221%22%20as%3D%22geometry%22%3E%3CmxPoint%20x%3D%22-1038.1799999999998%22%20y%3D%222235%22%20as%3D%22sourcePoint%22%2F%3E%3CmxPoint%20x%3D%22-833.18%22%20y%3D%222235%22%20as%3D%22targetPoint%22%2F%3E%3C%2FmxGeometry%3E%3C%2FmxCell%3E%3CmxCell%20id%3D%2217%22%20value%3D%22%22%20style%3D%22endArrow%3Dclassic%3Bhtml%3D1%3Brounded%3D0%3B%22%20edge%3D%221%22%20parent%3D%221%22%3E%3CmxGeometry%20width%3D%2250%22%20height%3D%2250%22%20relative%3D%221%22%20as%3D%22geometry%22%3E%3CmxPoint%20x%3D%22-1013.18%22%20y%3D%222220%22%20as%3D%22sourcePoint%22%2F%3E%3CmxPoint%20x%3D%22-719.09%22%20y%3D%222220%22%20as%3D%22targetPoint%22%2F%3E%3C%2FmxGeometry%3E%3C%2FmxCell%3E%3CmxCell%20id%3D%2218%22%20value%3D%22%22%20style%3D%22endArrow%3Dclassic%3Bhtml%3D1%3Brounded%3D0%3Bdashed%3D1%3B%22%20edge%3D%221%22%20parent%3D%221%22%3E%3CmxGeometry%20width%3D%2250%22%20height%3D%2250%22%20relative%3D%221%22%20as%3D%22geometry%22%3E%3CmxPoint%20x%3D%22-719.09%22%20y%3D%222250%22%20as%3D%22sourcePoint%22%2F%3E%3CmxPoint%20x%3D%22-1019.09%22%20y%3D%222250%22%20as%3D%22targetPoint%22%2F%3E%3C%2FmxGeometry%3E%3C%2FmxCell%3E%3CmxCell%20id%3D%2219%22%20style%3D%22edgeStyle%3DorthogonalEdgeStyle%3Brounded%3D0%3BorthogonalLoop%3D1%3BjettySize%3Dauto%3Bhtml%3D1%3BendArrow%3Dnone%3BstartFill%3D0%3B%22%20edge%3D%221%22%20source%3D%2220%22%20parent%3D%221%22%3E%3CmxGeometry%20relative%3D%221%22%20as%3D%22geometry%22%3E%3CmxPoint%20x%3D%22170.91%22%20y%3D%222235%22%20as%3D%22targetPoint%22%2F%3E%3C%2FmxGeometry%3E%3C%2FmxCell%3E%3CmxCell%20id%3D%2220%22%20value%3D%22%3AClassRepository%22%20style%3D%22rounded%3D0%3BwhiteSpace%3Dwrap%3Bhtml%3D1%3B%22%20vertex%3D%221%22%20parent%3D%221%22%3E%3CmxGeometry%20x%3D%22-369.0899999999999%22%20y%3D%222215%22%20width%3D%22130.91%22%20height%3D%2240%22%20as%3D%22geometry%22%2F%3E%3C%2FmxCell%3E%3CmxCell%20id%3D%2221%22%20style%3D%22edgeStyle%3DorthogonalEdgeStyle%3Brounded%3D0%3BorthogonalLoop%3D1%3BjettySize%3Dauto%3Bhtml%3D1%3BentryX%3D0%3BentryY%3D0.5%3BentryDx%3D0%3BentryDy%3D0%3BendArrow%3Dnone%3BstartFill%3D0%3B%22%20edge%3D%221%22%20target%3D%2220%22%20parent%3D%221%22%3E%3CmxGeometry%20relative%3D%221%22%20as%3D%22geometry%22%3E%3CmxPoint%20x%3D%22-578.1799999999998%22%20y%3D%222235%22%20as%3D%22sourcePoint%22%2F%3E%3CmxPoint%20x%3D%22-373.17999999999984%22%20y%3D%222235%22%20as%3D%22targetPoint%22%2F%3E%3C%2FmxGeometry%3E%3C%2FmxCell%3E%3CmxCell%20id%3D%2222%22%20value%3D%22%22%20style%3D%22endArrow%3Dclassic%3Bhtml%3D1%3Brounded%3D0%3B%22%20edge%3D%221%22%20parent%3D%221%22%3E%3CmxGeometry%20width%3D%2250%22%20height%3D%2250%22%20relative%3D%221%22%20as%3D%22geometry%22%3E%3CmxPoint%20x%3D%22-553.18%22%20y%3D%222220%22%20as%3D%22sourcePoint%22%2F%3E%3CmxPoint%20x%3D%22-393.1799999999997%22%20y%3D%222220%22%20as%3D%22targetPoint%22%2F%3E%3C%2FmxGeometry%3E%3C%2FmxCell%3E%3CmxCell%20id%3D%2223%22%20value%3D%22%22%20style%3D%22endArrow%3Dclassic%3Bhtml%3D1%3Brounded%3D0%3Bdashed%3D1%3B%22%20edge%3D%221%22%20parent%3D%221%22%3E%3CmxGeometry%20width%3D%2250%22%20height%3D%2250%22%20relative%3D%221%22%20as%3D%22geometry%22%3E%3CmxPoint%20x%3D%22-389.09000000000003%22%20y%3D%222250%22%20as%3D%22sourcePoint%22%2F%3E%3CmxPoint%20x%3D%22-549.09%22%20y%3D%222250%22%20as%3D%22targetPoint%22%2F%3E%3C%2FmxGeometry%3E%3C%2FmxCell%3E%3CmxCell%20id%3D%2224%22%20value%3D%22GET%20%2Fapi%2Fclasses%3Fadmin%3Dtrue%26lt%3Bdiv%26gt%3BPOST%20%2Fapi%2Fclasses%2Fedit%20(classID%2C%20updatedData)%26lt%3B%2Fdiv%26gt%3B%22%20style%3D%22text%3Bhtml%3D1%3Balign%3Dcenter%3BverticalAlign%3Dmiddle%3Bresizable%3D0%3Bpoints%3D%5B%5D%3Bautosize%3D1%3BstrokeColor%3Dnone%3BfillColor%3Dnone%3B%22%20vertex%3D%221%22%20parent%3D%221%22%3E%3CmxGeometry%20x%3D%22-1905%22%20y%3D%222175%22%20width%3D%22270%22%20height%3D%2240%22%20as%3D%22geometry%22%2F%3E%3C%2FmxCell%3E%3CmxCell%20id%3D%2225%22%20value%3D%22%26amp%3Bnbsp%3B%3ADatabase%22%20style%3D%22rounded%3D0%3BwhiteSpace%3Dwrap%3Bhtml%3D1%3B%22%20vertex%3D%221%22%20parent%3D%221%22%3E%3CmxGeometry%20x%3D%22130.00000000000014%22%20y%3D%222215%22%20width%3D%22130.91%22%20height%3D%2240%22%20as%3D%22geometry%22%2F%3E%3C%2FmxCell%3E%3CmxCell%20id%3D%2226%22%20value%3D%22Edit%20Class%22%20style%3D%22text%3Bhtml%3D1%3Balign%3Dcenter%3BverticalAlign%3Dmiddle%3BwhiteSpace%3Dwrap%3Brounded%3D0%3BfontSize%3D20%3B%22%20vertex%3D%221%22%20parent%3D%221%22%3E%3CmxGeometry%20x%3D%22-1291.59%22%20y%3D%222050%22%20width%3D%22345%22%20height%3D%2230%22%20as%3D%22geometry%22%2F%3E%3C%2FmxCell%3E%3CmxCell%20id%3D%2227%22%20value%3D%22selectClass(classID)%26lt%3Bbr%26gt%3BsubmitEditForm(updated%20Data%2C%20classID)%22%20style%3D%22text%3Bhtml%3D1%3Balign%3Dcenter%3BverticalAlign%3Dmiddle%3Bresizable%3D0%3Bpoints%3D%5B%5D%3Bautosize%3D1%3BstrokeColor%3Dnone%3BfillColor%3Dnone%3B%22%20vertex%3D%221%22%20parent%3D%221%22%3E%3CmxGeometry%20x%3D%22-2240%22%20y%3D%222160%22%20width%3D%22230%22%20height%3D%2240%22%20as%3D%22geometry%22%2F%3E%3C%2FmxCell%3E%3CmxCell%20id%3D%2228%22%20value%3D%22%22%20style%3D%22endArrow%3Dclassic%3Bhtml%3D1%3Brounded%3D0%3Bdashed%3D1%3B%22%20edge%3D%221%22%20parent%3D%221%22%3E%3CmxGeometry%20width%3D%2250%22%20height%3D%2250%22%20relative%3D%221%22%20as%3D%22geometry%22%3E%3CmxPoint%20x%3D%22-1684.09%22%20y%3D%222250%22%20as%3D%22sourcePoint%22%2F%3E%3CmxPoint%20x%3D%22-1844.09%22%20y%3D%222250%22%20as%3D%22targetPoint%22%2F%3E%3C%2FmxGeometry%3E%3C%2FmxCell%3E%3CmxCell%20id%3D%2229%22%20value%3D%22%22%20style%3D%22endArrow%3Dclassic%3Bhtml%3D1%3Brounded%3D0%3B%22%20edge%3D%221%22%20parent%3D%221%22%3E%3CmxGeometry%20width%3D%2250%22%20height%3D%2250%22%20relative%3D%221%22%20as%3D%22geometry%22%3E%3CmxPoint%20x%3D%22-219.08999999999995%22%20y%3D%222219.38%22%20as%3D%22sourcePoint%22%2F%3E%3CmxPoint%20x%3D%22150.91000000000003%22%20y%3D%222220%22%20as%3D%22targetPoint%22%2F%3E%3C%2FmxGeometry%3E%3C%2FmxCell%3E%3CmxCell%20id%3D%2230%22%20value%3D%22%22%20style%3D%22endArrow%3Dclassic%3Bhtml%3D1%3Brounded%3D0%3Bdashed%3D1%3B%22%20edge%3D%221%22%20parent%3D%221%22%3E%3CmxGeometry%20width%3D%2250%22%20height%3D%2250%22%20relative%3D%221%22%20as%3D%22geometry%22%3E%3CmxPoint%20x%3D%22140.91000000000003%22%20y%3D%222250%22%20as%3D%22sourcePoint%22%2F%3E%3CmxPoint%20x%3D%22-219.09%22%20y%3D%222250%22%20as%3D%22targetPoint%22%2F%3E%3C%2FmxGeometry%3E%3C%2FmxCell%3E%3CmxCell%20id%3D%2231%22%20value%3D%22%26amp%3Bnbsp%3B%22%20style%3D%22text%3Bhtml%3D1%3Balign%3Dcenter%3BverticalAlign%3Dmiddle%3Bresizable%3D0%3Bpoints%3D%5B%5D%3Bautosize%3D1%3BstrokeColor%3Dnone%3BfillColor%3Dnone%3B%22%20vertex%3D%221%22%20parent%3D%221%22%3E%3CmxGeometry%20x%3D%22-1430%22%20y%3D%222265%22%20width%3D%2230%22%20height%3D%2230%22%20as%3D%22geometry%22%2F%3E%3C%2FmxCell%3E%3CmxCell%20id%3D%2232%22%20value%3D%22successResponse(200%2C%20classList)%26lt%3Bdiv%26gt%3BerrorResponse(400%2C%20%26quot%3BData%20incomplete%2Fincorrect%26quot%3B)%26lt%3B%2Fdiv%26gt%3B%26lt%3Bdiv%26gt%3BerrorResponse(500%2C%20%26quot%3BEdit%20failed%26quot%3B)%26lt%3B%2Fdiv%26gt%3B%26lt%3Bdiv%26gt%3BsuccessResponse(200%2C%20%26quot%3BEdit%20class%20successful%26quot%3B%2C%20updatedClass)%26lt%3B%2Fdiv%26gt%3B%22%20style%3D%22text%3Bhtml%3D1%3Balign%3Dcenter%3BverticalAlign%3Dmiddle%3Bresizable%3D0%3Bpoints%3D%5B%5D%3Bautosize%3D1%3BstrokeColor%3Dnone%3BfillColor%3Dnone%3B%22%20vertex%3D%221%22%20parent%3D%221%22%3E%3CmxGeometry%20x%3D%22-1945%22%20y%3D%222250%22%20width%3D%22350%22%20height%3D%2270%22%20as%3D%22geometry%22%2F%3E%3C%2FmxCell%3E%3CmxCell%20id%3D%2233%22%20value%3D%22displayClassList(classList)%26lt%3Bdiv%26gt%3BdisplayMessage(%26quot%3BEdit%20class%20successful%26quot%3B)%26lt%3B%2Fdiv%26gt%3B%22%20style%3D%22text%3Bhtml%3D1%3Balign%3Dcenter%3BverticalAlign%3Dmiddle%3Bresizable%3D0%3Bpoints%3D%5B%5D%3Bautosize%3D1%3BstrokeColor%3Dnone%3BfillColor%3Dnone%3B%22%20vertex%3D%221%22%20parent%3D%221%22%3E%3CmxGeometry%20x%3D%22-2245%22%20y%3D%222265%22%20width%3D%22240%22%20height%3D%2240%22%20as%3D%22geometry%22%2F%3E%3C%2FmxCell%3E%3CmxCell%20id%3D%2234%22%20style%3D%22edgeStyle%3DorthogonalEdgeStyle%3Brounded%3D0%3BorthogonalLoop%3D1%3BjettySize%3Dauto%3Bhtml%3D1%3BentryX%3D0.5%3BentryY%3D1%3BentryDx%3D0%3BentryDy%3D0%3BendArrow%3Dnone%3BstartFill%3D0%3B%22%20edge%3D%221%22%20source%3D%2235%22%20parent%3D%221%22%3E%3CmxGeometry%20relative%3D%221%22%20as%3D%22geometry%22%3E%3CmxPoint%20x%3D%22-1595.91%22%20y%3D%222255%22%20as%3D%22targetPoint%22%2F%3E%3C%2FmxGeometry%3E%3C%2FmxCell%3E%3CmxCell%20id%3D%2235%22%20value%3D%22%26amp%3Bnbsp%3B%3AMiddleware%22%20style%3D%22rounded%3D0%3BwhiteSpace%3Dwrap%3Bhtml%3D1%3B%22%20vertex%3D%221%22%20parent%3D%221%22%3E%3CmxGeometry%20x%3D%22-1660.91%22%20y%3D%222490%22%20width%3D%22130.91%22%20height%3D%2240%22%20as%3D%22geometry%22%2F%3E%3C%2FmxCell%3E%3CmxCell%20id%3D%2236%22%20value%3D%22%22%20style%3D%22endArrow%3Dclassic%3Bhtml%3D1%3Brounded%3D0%3B%22%20edge%3D%221%22%20parent%3D%221%22%3E%3CmxGeometry%20width%3D%2250%22%20height%3D%2250%22%20relative%3D%221%22%20as%3D%22geometry%22%3E%3CmxPoint%20x%3D%22-1611%22%20y%3D%222280%22%20as%3D%22sourcePoint%22%2F%3E%3CmxPoint%20x%3D%22-1610.91%22%20y%3D%222480%22%20as%3D%22targetPoint%22%2F%3E%3C%2FmxGeometry%3E%3C%2FmxCell%3E%3CmxCell%20id%3D%2237%22%20value%3D%22%22%20style%3D%22endArrow%3Dclassic%3Bhtml%3D1%3Brounded%3D0%3Bdashed%3D1%3B%22%20edge%3D%221%22%20parent%3D%221%22%3E%3CmxGeometry%20width%3D%2250%22%20height%3D%2250%22%20relative%3D%221%22%20as%3D%22geometry%22%3E%3CmxPoint%20x%3D%22-1580.91%22%20y%3D%222480%22%20as%3D%22sourcePoint%22%2F%3E%3CmxPoint%20x%3D%22-1580.91%22%20y%3D%222280%22%20as%3D%22targetPoint%22%2F%3E%3C%2FmxGeometry%3E%3C%2FmxCell%3E%3CmxCell%20id%3D%2238%22%20value%3D%22validateSession()%26lt%3Bdiv%26gt%3BvalidateRequest()%26lt%3B%2Fdiv%26gt%3B%22%20style%3D%22text%3Bhtml%3D1%3Balign%3Dcenter%3BverticalAlign%3Dmiddle%3Bresizable%3D0%3Bpoints%3D%5B%5D%3Bautosize%3D1%3BstrokeColor%3Dnone%3BfillColor%3Dnone%3B%22%20vertex%3D%221%22%20parent%3D%221%22%3E%3CmxGeometry%20x%3D%22-1735%22%20y%3D%222390%22%20width%3D%22120%22%20height%3D%2240%22%20as%3D%22geometry%22%2F%3E%3C%2FmxCell%3E%3CmxCell%20id%3D%2239%22%20value%3D%22%22%20style%3D%22endArrow%3Dclassic%3Bhtml%3D1%3Brounded%3D0%3BexitX%3D0.25%3BexitY%3D0%3BexitDx%3D0%3BexitDy%3D0%3BentryX%3D0.75%3BentryY%3D0%3BentryDx%3D0%3BentryDy%3D0%3B%22%20edge%3D%221%22%20source%3D%2211%22%20target%3D%2211%22%20parent%3D%221%22%3E%3CmxGeometry%20width%3D%2250%22%20height%3D%2250%22%20relative%3D%221%22%20as%3D%22geometry%22%3E%3CmxPoint%20x%3D%22-1169.09%22%20y%3D%222190%22%20as%3D%22sourcePoint%22%2F%3E%3CmxPoint%20x%3D%22-1039.09%22%20y%3D%222170%22%20as%3D%22targetPoint%22%2F%3E%3CArray%20as%3D%22points%22%3E%3CmxPoint%20x%3D%22-1135.35%22%20y%3D%222180%22%2F%3E%3CmxPoint%20x%3D%22-1135.0900000000001%22%20y%3D%222170%22%2F%3E%3CmxPoint%20x%3D%22-1069.09%22%20y%3D%222170%22%2F%3E%3C%2FArray%3E%3C%2FmxGeometry%3E%3C%2FmxCell%3E%3CmxCell%20id%3D%2240%22%20value%3D%22validateUpdatedData%26amp%3Bnbsp%3B%22%20style%3D%22text%3Bhtml%3D1%3Balign%3Dcenter%3BverticalAlign%3Dmiddle%3Bresizable%3D0%3Bpoints%3D%5B%5D%3Bautosize%3D1%3BstrokeColor%3Dnone%3BfillColor%3Dnone%3B%22%20vertex%3D%221%22%20parent%3D%221%22%3E%3CmxGeometry%20x%3D%22-1173.63%22%20y%3D%222125%22%20width%3D%22140%22%20height%3D%2230%22%20as%3D%22geometry%22%2F%3E%3C%2FmxCell%3E%3CmxCell%20id%3D%2241%22%20value%3D%22successResponse(200%2C%20classList)%26lt%3Bdiv%26gt%3B%5BinvalidData%20(7.1a)%5D%20returnError(%26quot%3BData%20incomplete%2Fincorrect%26quot%3B)%26lt%3B%2Fdiv%26gt%3B%26lt%3Bdiv%26gt%3BerrorResponse(500%2C%20%26quot%3BEdit%20failed%26quot%3B)%26lt%3B%2Fdiv%26gt%3B%26lt%3Bdiv%26gt%3BsuccessResponse(200%2C%20%26quot%3BEdit%20class%20successful%26quot%3B%2C%20updatedClass)%26lt%3B%2Fdiv%26gt%3B%22%20style%3D%22text%3Bhtml%3D1%3Balign%3Dcenter%3BverticalAlign%3Dmiddle%3Bresizable%3D0%3Bpoints%3D%5B%5D%3Bautosize%3D1%3BstrokeColor%3Dnone%3BfillColor%3Dnone%3B%22%20vertex%3D%221%22%20parent%3D%221%22%3E%3CmxGeometry%20x%3D%22-1530%22%20y%3D%222245%22%20width%3D%22350%22%20height%3D%2270%22%20as%3D%22geometry%22%2F%3E%3C%2FmxCell%3E%3CmxCell%20id%3D%2242%22%20style%3D%22edgeStyle%3DorthogonalEdgeStyle%3Brounded%3D0%3BorthogonalLoop%3D1%3BjettySize%3Dauto%3Bhtml%3D1%3BendArrow%3Dnone%3BstartFill%3D0%3BexitX%3D1%3BexitY%3D0.5%3BexitDx%3D0%3BexitDy%3D0%3B%22%20edge%3D%221%22%20source%3D%2235%22%20parent%3D%221%22%3E%3CmxGeometry%20relative%3D%221%22%20as%3D%22geometry%22%3E%3CmxPoint%20x%3D%22-1100%22%20y%3D%222256%22%20as%3D%22targetPoint%22%2F%3E%3CmxPoint%20x%3D%22-1424.79%22%20y%3D%222545%22%20as%3D%22sourcePoint%22%2F%3E%3CArray%20as%3D%22points%22%3E%3CmxPoint%20x%3D%22-1490%22%20y%3D%222510%22%2F%3E%3CmxPoint%20x%3D%22-1490%22%20y%3D%222420%22%2F%3E%3CmxPoint%20x%3D%22-1100%22%20y%3D%222420%22%2F%3E%3CmxPoint%20x%3D%22-1100%22%20y%3D%222256%22%2F%3E%3C%2FArray%3E%3C%2FmxGeometry%3E%3C%2FmxCell%3E%3CmxCell%20id%3D%2243%22%20value%3D%22getAdminClasses(userID)%26lt%3Bdiv%26gt%3BeditClass(classID%2C%20updated%20Data)%26lt%3B%2Fdiv%26gt%3B%22%20style%3D%22text%3Bhtml%3D1%3Balign%3Dcenter%3BverticalAlign%3Dmiddle%3Bresizable%3D0%3Bpoints%3D%5B%5D%3Bautosize%3D1%3BstrokeColor%3Dnone%3BfillColor%3Dnone%3B%22%20vertex%3D%221%22%20parent%3D%221%22%3E%3CmxGeometry%20x%3D%22-1395%22%20y%3D%222360%22%20width%3D%22200%22%20height%3D%2240%22%20as%3D%22geometry%22%2F%3E%3C%2FmxCell%3E%3CmxCell%20id%3D%2244%22%20value%3D%22%26amp%3Bnbsp%3B%22%20style%3D%22text%3Bhtml%3D1%3Balign%3Dcenter%3BverticalAlign%3Dmiddle%3Bresizable%3D0%3Bpoints%3D%5B%5D%3Bautosize%3D1%3BstrokeColor%3Dnone%3BfillColor%3Dnone%3B%22%20vertex%3D%221%22%20parent%3D%221%22%3E%3CmxGeometry%20x%3D%22-883.1800000000001%22%20y%3D%222180%22%20width%3D%2230%22%20height%3D%2230%22%20as%3D%22geometry%22%2F%3E%3C%2FmxCell%3E%3CmxCell%20id%3D%2245%22%20value%3D%22selectClassesByAdmin(userID)%26lt%3Bdiv%26gt%3BupdateClass(classID%2C%20updatedData)%26lt%3B%2Fdiv%26gt%3B%22%20style%3D%22text%3Bhtml%3D1%3Balign%3Dcenter%3BverticalAlign%3Dmiddle%3Bresizable%3D0%3Bpoints%3D%5B%5D%3Bautosize%3D1%3BstrokeColor%3Dnone%3BfillColor%3Dnone%3B%22%20vertex%3D%221%22%20parent%3D%221%22%3E%3CmxGeometry%20x%3D%22-573.1800000000001%22%20y%3D%222180%22%20width%3D%22210%22%20height%3D%2240%22%20as%3D%22geometry%22%2F%3E%3C%2FmxCell%3E%3CmxCell%20id%3D%2246%22%20value%3D%22SELECT%20id%2C%20name%2C%20description%2C%20privacy%20FROM%20classes%20WHERE%20owner_id%3D%3F%26lt%3Bdiv%26gt%3BUPDATE%20classes%20SET%20name%3D%3F%2C%20description%3D%3F%2C%20privacy%3D%3F%20WHERE%20id%3D%3F%26lt%3B%2Fdiv%26gt%3B%22%20style%3D%22text%3Bhtml%3D1%3Balign%3Dcenter%3BverticalAlign%3Dmiddle%3Bresizable%3D0%3Bpoints%3D%5B%5D%3Bautosize%3D1%3BstrokeColor%3Dnone%3BfillColor%3Dnone%3B%22%20vertex%3D%221%22%20parent%3D%221%22%3E%3CmxGeometry%20x%3D%22-224.09%22%20y%3D%222180%22%20width%3D%22420%22%20height%3D%2240%22%20as%3D%22geometry%22%2F%3E%3C%2FmxCell%3E%3CmxCell%20id%3D%2247%22%20value%3D%22classList%26lt%3Bdiv%26gt%3BaffectedRows%26lt%3B%2Fdiv%26gt%3B%22%20style%3D%22text%3Bhtml%3D1%3Balign%3Dcenter%3BverticalAlign%3Dmiddle%3Bresizable%3D0%3Bpoints%3D%5B%5D%3Bautosize%3D1%3BstrokeColor%3Dnone%3BfillColor%3Dnone%3B%22%20vertex%3D%221%22%20parent%3D%221%22%3E%3CmxGeometry%20x%3D%22-74.09%22%20y%3D%222255%22%20width%3D%22100%22%20height%3D%2240%22%20as%3D%22geometry%22%2F%3E%3C%2FmxCell%3E%3CmxCell%20id%3D%2248%22%20value%3D%22classList%26lt%3Bbr%26gt%3B%5BupdateFailure%20(5.1%20a)%5D%20returnError(%26quot%3BEdit%20failed%26quot%3B)%26lt%3Bdiv%26gt%3B%5BupdateSuccess%20(5.1)%5D%20returnClassRecord(updateClass)%26lt%3B%2Fdiv%26gt%3B%22%20style%3D%22text%3Bhtml%3D1%3Balign%3Dcenter%3BverticalAlign%3Dmiddle%3Bresizable%3D0%3Bpoints%3D%5B%5D%3Bautosize%3D1%3BstrokeColor%3Dnone%3BfillColor%3Dnone%3B%22%20vertex%3D%221%22%20parent%3D%221%22%3E%3CmxGeometry%20x%3D%22-629.09%22%20y%3D%222250%22%20width%3D%22320%22%20height%3D%2260%22%20as%3D%22geometry%22%2F%3E%3C%2FmxCell%3E%3CmxCell%20id%3D%2249%22%20value%3D%22classList%26amp%3Bnbsp%3B%26lt%3Bdiv%26gt%3BreturnError(%26quot%3BEdit%20failed%26quot%3B)%26lt%3B%2Fdiv%26gt%3B%26lt%3Bdiv%26gt%3B%26amp%3Bnbsp%3BreturnClassRecord(updateClass)%26lt%3B%2Fdiv%26gt%3B%22%20style%3D%22text%3Bhtml%3D1%3Balign%3Dcenter%3BverticalAlign%3Dmiddle%3Bresizable%3D0%3Bpoints%3D%5B%5D%3Bautosize%3D1%3BstrokeColor%3Dnone%3BfillColor%3Dnone%3B%22%20vertex%3D%221%22%20parent%3D%221%22%3E%3CmxGeometry%20x%3D%22-968.1800000000001%22%20y%3D%222250%22%20width%3D%22200%22%20height%3D%2260%22%20as%3D%22geometry%22%2F%3E%3C%2FmxCell%3E%3CmxCell%20id%3D%2250%22%20value%3D%22getAdminClasses(userID)%26lt%3Bdiv%26gt%3B%5BvalidData(7.1)%5D%20editClass(classID%2C%20updatedData)%26lt%3B%2Fdiv%26gt%3B%22%20style%3D%22text%3Bhtml%3D1%3Balign%3Dcenter%3BverticalAlign%3Dmiddle%3Bresizable%3D0%3Bpoints%3D%5B%5D%3Bautosize%3D1%3BstrokeColor%3Dnone%3BfillColor%3Dnone%3B%22%20vertex%3D%221%22%20parent%3D%221%22%3E%3CmxGeometry%20x%3D%22-1008.1800000000001%22%20y%3D%222175%22%20width%3D%22280%22%20height%3D%2240%22%20as%3D%22geometry%22%2F%3E%3C%2FmxCell%3E%3CmxCell%20id%3D%2251%22%20value%3D%22%22%20style%3D%22endArrow%3Dclassic%3Bhtml%3D1%3Brounded%3D0%3B%22%20edge%3D%221%22%20parent%3D%221%22%3E%3CmxGeometry%20width%3D%2250%22%20height%3D%2250%22%20relative%3D%221%22%20as%3D%22geometry%22%3E%3CmxPoint%20x%3D%22-1519.09%22%20y%3D%222496%22%20as%3D%22sourcePoint%22%2F%3E%3CmxPoint%20x%3D%22-1120%22%20y%3D%222265%22%20as%3D%22targetPoint%22%2F%3E%3CArray%20as%3D%22points%22%3E%3CmxPoint%20x%3D%22-1499.09%22%20y%3D%222496%22%2F%3E%3CmxPoint%20x%3D%22-1499.09%22%20y%3D%222406%22%2F%3E%3CmxPoint%20x%3D%22-1120%22%20y%3D%222410%22%2F%3E%3CmxPoint%20x%3D%22-1120%22%20y%3D%222330%22%2F%3E%3C%2FArray%3E%3C%2FmxGeometry%3E%3C%2FmxCell%3E%3CmxCell%20id%3D%2252%22%20value%3D%22%22%20style%3D%22endArrow%3Dclassic%3Bhtml%3D1%3Brounded%3D0%3BexitX%3D0.25%3BexitY%3D0%3BexitDx%3D0%3BexitDy%3D0%3BentryX%3D0.75%3BentryY%3D0%3BentryDx%3D0%3BentryDy%3D0%3B%22%20edge%3D%221%22%20parent%3D%221%22%3E%3CmxGeometry%20width%3D%2250%22%20height%3D%2250%22%20relative%3D%221%22%20as%3D%22geometry%22%3E%3CmxPoint%20x%3D%22-677.0899999999999%22%20y%3D%222215%22%20as%3D%22sourcePoint%22%2F%3E%3CmxPoint%20x%3D%22-612.0899999999999%22%20y%3D%222215%22%20as%3D%22targetPoint%22%2F%3E%3CArray%20as%3D%22points%22%3E%3CmxPoint%20x%3D%22-676.44%22%20y%3D%222180%22%2F%3E%3CmxPoint%20x%3D%22-676.1800000000001%22%20y%3D%222170%22%2F%3E%3CmxPoint%20x%3D%22-610.1800000000001%22%20y%3D%222170%22%2F%3E%3C%2FArray%3E%3C%2FmxGeometry%3E%3C%2FmxCell%3E%3CmxCell%20id%3D%2253%22%20value%3D%2222.%20verifyCurrentPassword(userId%2C%20currentPassword)%22%20style%3D%22text%3Bhtml%3D1%3Balign%3Dcenter%3BverticalAlign%3Dmiddle%3Bresizable%3D0%3Bpoints%3D%5B%5D%3Bautosize%3D1%3BstrokeColor%3Dnone%3BfillColor%3Dnone%3B%22%20vertex%3D%221%22%20parent%3D%221%22%3E%3CmxGeometry%20x%3D%22-788.1800000000001%22%20y%3D%222130%22%20width%3D%22300%22%20height%3D%2230%22%20as%3D%22geometry%22%2F%3E%3C%2FmxCell%3E%3CmxCell%20id%3D%2254%22%20value%3D%22%22%20style%3D%22endArrow%3Dclassic%3Bhtml%3D1%3Brounded%3D0%3BexitX%3D0.25%3BexitY%3D0%3BexitDx%3D0%3BexitDy%3D0%3BentryX%3D0.75%3BentryY%3D0%3BentryDx%3D0%3BentryDy%3D0%3B%22%20edge%3D%221%22%20parent%3D%221%22%3E%3CmxGeometry%20width%3D%2250%22%20height%3D%2250%22%20relative%3D%221%22%20as%3D%22geometry%22%3E%3CmxPoint%20x%3D%22-1966.9099999999999%22%20y%3D%222215%22%20as%3D%22sourcePoint%22%2F%3E%3CmxPoint%20x%3D%22-1901.9099999999999%22%20y%3D%222215%22%20as%3D%22targetPoint%22%2F%3E%3CArray%20as%3D%22points%22%3E%3CmxPoint%20x%3D%22-1966.2599999999998%22%20y%3D%222180%22%2F%3E%3CmxPoint%20x%3D%22-1966%22%20y%3D%222170%22%2F%3E%3CmxPoint%20x%3D%22-1900%22%20y%3D%222170%22%2F%3E%3C%2FArray%3E%3C%2FmxGeometry%3E%3C%2FmxCell%3E%3CmxCell%20id%3D%2255%22%20value%3D%22displayEditForm(classDetail)%22%20style%3D%22text%3Bhtml%3D1%3Balign%3Dcenter%3BverticalAlign%3Dmiddle%3Bresizable%3D0%3Bpoints%3D%5B%5D%3Bautosize%3D1%3BstrokeColor%3Dnone%3BfillColor%3Dnone%3B%22%20vertex%3D%221%22%20parent%3D%221%22%3E%3CmxGeometry%20x%3D%22-2024.54%22%20y%3D%222125%22%20width%3D%22180%22%20height%3D%2230%22%20as%3D%22geometry%22%2F%3E%3C%2FmxCell%3E%3C%2Froot%3E%3C%2FmxGraphModel%3E&lt;/span&gt;validateSession()&lt;div&gt;21. validateRequest()&lt;/div&gt;" style="text;html=1;align=center;verticalAlign=middle;resizable=0;points=[];autosize=1;strokeColor=none;fillColor=none;" parent="1" vertex="1"><mxGeometry x="4225" y="2990" width="140" height="40" as="geometry"/></mxCell><mxCell id="37" value="&lt;div&gt;10. errorResponse(404, &quot;ไม่พบข้อมูล class&quot;)&lt;/div&gt;&lt;div&gt;&lt;span style=&quot;background-color: transparent; color: light-dark(rgb(0, 0, 0), rgb(255, 255, 255));&quot;&gt;14. successResponse(200, classList)&lt;/span&gt;&lt;/div&gt;&lt;div&gt;&lt;div&gt;&lt;span style=&quot;background-color: transparent; color: light-dark(rgb(0, 0, 0), rgb(255, 255, 255));&quot;&gt;29. successResponse(200, inviteCode)&lt;/span&gt;&lt;/div&gt;&lt;/div&gt;&lt;div&gt;&lt;span style=&quot;background-color: transparent; color: light-dark(rgb(0, 0, 0), rgb(255, 255, 255));&quot;&gt;45. successResponse(200, inviteCodeRecord)&lt;/span&gt;&lt;/div&gt;&lt;div&gt;&lt;span style=&quot;background-color: transparent; color: light-dark(rgb(0, 0, 0), rgb(255, 255, 255));&quot;&gt;&amp;nbsp;&amp;nbsp;&lt;/span&gt;&lt;span style=&quot;background-color: transparent; color: light-dark(rgb(0, 0, 0), rgb(255, 255, 255));&quot;&gt;50. errorResponse(500, &quot;ไม่สามารถสร้าง invite code ได้&quot;)&amp;nbsp;&lt;/span&gt;&lt;/div&gt;" style="text;html=1;align=center;verticalAlign=middle;resizable=0;points=[];autosize=1;strokeColor=none;fillColor=none;" parent="1" vertex="1"><mxGeometry x="4450.09" y="2855" width="330" height="90" as="geometry"/></mxCell><mxCell id="38" style="edgeStyle=orthogonalEdgeStyle;rounded=0;orthogonalLoop=1;jettySize=auto;html=1;endArrow=none;startFill=0;exitX=1;exitY=0.5;exitDx=0;exitDy=0;" parent="1" source="33" edge="1"><mxGeometry relative="1" as="geometry"><mxPoint x="4870" y="2856" as="targetPoint"/><mxPoint x="4545.21" y="3145" as="sourcePoint"/><Array as="points"><mxPoint x="4480" y="3110"/><mxPoint x="4480" y="3020"/><mxPoint x="4870" y="3020"/><mxPoint x="4870" y="2856"/></Array></mxGeometry></mxCell><mxCell id="39" value="3. getAdminClasses(userID)&lt;div&gt;22. viewInviteCode(classID)&lt;/div&gt;" style="text;html=1;align=center;verticalAlign=middle;resizable=0;points=[];autosize=1;strokeColor=none;fillColor=none;" parent="1" vertex="1"><mxGeometry x="4590" y="2960" width="170" height="40" as="geometry"/></mxCell><mxCell id="40" value="&amp;nbsp;" style="text;html=1;align=center;verticalAlign=middle;resizable=0;points=[];autosize=1;strokeColor=none;fillColor=none;" parent="1" vertex="1"><mxGeometry x="5086.82" y="2780" width="30" height="30" as="geometry"/></mxCell><mxCell id="41" value="5.&amp;nbsp; selectClassesByAdmin(userID)&lt;div&gt;24. selectInviteCode(classID)&lt;/div&gt;&lt;div&gt;34. checkGeneratedCode(generatedCode)&lt;/div&gt;&lt;div&gt;40. insertInviteCode(classID, generatedCode)&lt;/div&gt;" style="text;html=1;align=center;verticalAlign=middle;resizable=0;points=[];autosize=1;strokeColor=none;fillColor=none;" parent="1" vertex="1"><mxGeometry x="5366.91" y="2740" width="270" height="70" as="geometry"/></mxCell><mxCell id="42" value="6. SELECT id, name, description, privacy FROM classes WHERE owner_id=?&lt;div&gt;25. SELECT invite_code FROM class_invite_codes WHERE class_id=?&amp;nbsp;&lt;/div&gt;&lt;div&gt;35. EXISTS (SELECT 1 FROM Classes WHERE invite_code = &amp;lt;invite_code&amp;gt;);&lt;/div&gt;&lt;div&gt;41. INSERT INTO class_invite_codes (class_id, invite_code) VALUES (?,?)&lt;/div&gt;" style="text;html=1;align=center;verticalAlign=middle;resizable=0;points=[];autosize=1;strokeColor=none;fillColor=none;" parent="1" vertex="1"><mxGeometry x="5714" y="2745" width="440" height="70" as="geometry"/></mxCell><mxCell id="43" value="7. classList&lt;div&gt;26. inviteCodeResult&lt;/div&gt;&lt;div&gt;36. checkResult&lt;/div&gt;&lt;div&gt;42. affectedRows&lt;/div&gt;" style="text;html=1;align=center;verticalAlign=middle;resizable=0;points=[];autosize=1;strokeColor=none;fillColor=none;" parent="1" vertex="1"><mxGeometry x="5869" y="2855" width="130" height="70" as="geometry"/></mxCell><mxCell id="44" value="8. [No classes found (2b.1)] emptyList&lt;div&gt;12. [Classes found (2a.1)] classList&lt;/div&gt;&lt;div&gt;27. [Invite code exists (5b.1)] inviteCode&lt;/div&gt;&lt;div&gt;32. [Invite code not found(5a.1)] null&lt;/div&gt;&lt;div&gt;37. [Generated code exists (7b.1)] foundExisting&lt;/div&gt;&lt;div&gt;39. [Generated code unique (7a.1)] not found&amp;nbsp;&lt;/div&gt;&lt;div&gt;43. [Insert success (9a.1)] inviteCodeRecord&lt;/div&gt;&lt;div&gt;48. [Insert failed (9b.1)] failure&lt;/div&gt;" style="text;html=1;align=center;verticalAlign=middle;resizable=0;points=[];autosize=1;strokeColor=none;fillColor=none;" parent="1" vertex="1"><mxGeometry x="5361.91" y="2865" width="280" height="130" as="geometry"/></mxCell><mxCell id="45" value="9. returnError(&quot;ไม่พบข้อมูล class&quot;)&lt;div&gt;13. classList&lt;/div&gt;&lt;div&gt;28. inviteCode&lt;/div&gt;&lt;div&gt;44. inviteCodeRecord&lt;/div&gt;&lt;div&gt;49. returnError(&quot;ไม่สามารถสร้าง invite code ได้&quot;)&lt;/div&gt;" style="text;html=1;align=center;verticalAlign=middle;resizable=0;points=[];autosize=1;strokeColor=none;fillColor=none;" parent="1" vertex="1"><mxGeometry x="4966.91" y="2870" width="270" height="90" as="geometry"/></mxCell><mxCell id="46" value="4. getAdminClasses(userID)&lt;div&gt;23. getInviteCode(classID)&lt;/div&gt;" style="text;html=1;align=center;verticalAlign=middle;resizable=0;points=[];autosize=1;strokeColor=none;fillColor=none;" parent="1" vertex="1"><mxGeometry x="5016.82" y="2775" width="170" height="40" as="geometry"/></mxCell><mxCell id="47" value="" style="endArrow=classic;html=1;rounded=0;" parent="1" edge="1"><mxGeometry width="50" height="50" relative="1" as="geometry"><mxPoint x="4450.91" y="3096" as="sourcePoint"/><mxPoint x="4850" y="2865" as="targetPoint"/><Array as="points"><mxPoint x="4470.91" y="3096"/><mxPoint x="4470.91" y="3006"/><mxPoint x="4850" y="3010"/><mxPoint x="4850" y="2930"/></Array></mxGeometry></mxCell><mxCell id="48" value="" style="endArrow=classic;html=1;rounded=0;exitX=0.25;exitY=0;exitDx=0;exitDy=0;entryX=0.75;entryY=0;entryDx=0;entryDy=0;" parent="1" edge="1"><mxGeometry width="50" height="50" relative="1" as="geometry"><mxPoint x="3881.1800000000003" y="2815" as="sourcePoint"/><mxPoint x="3946.1800000000003" y="2815" as="targetPoint"/><Array as="points"><mxPoint x="3881.8300000000004" y="2780"/><mxPoint x="3882.09" y="2770"/><mxPoint x="3948.09" y="2770"/></Array></mxGeometry></mxCell><mxCell id="49" value="18. displayEditForm(classDetails)" style="text;html=1;align=center;verticalAlign=middle;resizable=0;points=[];autosize=1;strokeColor=none;fillColor=none;" parent="1" vertex="1"><mxGeometry x="3814.55" y="2730" width="200" height="30" as="geometry"/></mxCell><mxCell id="50" value="" style="endArrow=classic;html=1;rounded=0;exitX=0.25;exitY=0;exitDx=0;exitDy=0;entryX=0.75;entryY=0;entryDx=0;entryDy=0;" parent="1" edge="1"><mxGeometry width="50" height="50" relative="1" as="geometry"><mxPoint x="5294" y="2815" as="sourcePoint"/><mxPoint x="5359" y="2815" as="targetPoint"/><Array as="points"><mxPoint x="5294.65" y="2780"/><mxPoint x="5294.91" y="2770"/><mxPoint x="5360.91" y="2770"/></Array></mxGeometry></mxCell><mxCell id="51" value="33. generatedRandomCode()&lt;div&gt;38. generatedCode()&lt;/div&gt;" style="text;html=1;align=center;verticalAlign=middle;resizable=0;points=[];autosize=1;strokeColor=none;fillColor=none;" parent="1" vertex="1"><mxGeometry x="5236.37" y="2720" width="180" height="40" as="geometry"/></mxCell></root></mxGraphModel></diagram></mxfile>